<?xml version="1.0" standalone="no"?>
<!DOCTYPE svg PUBLIC "-//W3C//DTD SVG 20010904//EN"
 "http://www.w3.org/TR/2001/REC-SVG-20010904/DTD/svg10.dtd">
<svg version="1.0" xmlns="http://www.w3.org/2000/svg"
 width="363.000000pt" height="363.000000pt" viewBox="0 0 363.000000 363.000000"
 preserveAspectRatio="xMidYMid meet">
<metadata>
Created by potrace 1.14, written by Peter Selinger 2001-2017
</metadata>
<g transform="translate(0.000000,363.000000) scale(0.100000,-0.100000)"
fill="#000000" stroke="none">
<path d="M1707 3554 c-1 -1 -29 -4 -62 -7 -629 -58 -1186 -448 -1461 -1022
-323 -676 -193 -1481 325 -2020 174 -181 399 -335 603 -415 46 -17 92 -36 103
-40 54 -23 158 -50 189 -50 69 0 126 37 152 99 12 29 23 227 12 236 -2 1 -34
5 -73 8 -274 24 -519 223 -611 498 l-29 84 0 460 c0 456 0 460 22 501 47 87
145 142 236 132 88 -10 154 -58 192 -141 22 -47 23 -55 23 -451 0 -297 4 -415
13 -446 18 -60 91 -132 150 -149 90 -25 82 -117 82 857 0 956 -4 895 66 974
110 125 310 97 385 -54 l26 -52 0 -628 0 -628 24 0 c70 0 158 61 196 136 l24
49 1 416 c1 412 1 415 24 460 31 60 68 97 120 120 126 55 285 -17 321 -147 9
-31 12 -159 12 -456 -1 -425 -2 -442 -22 -518 -81 -303 -363 -531 -667 -539
l-33 -1 0 -343 c0 -336 0 -344 23 -387 26 -53 83 -90 140 -90 67 0 259 67 412
144 601 303 988 926 988 1591 0 95 -8 237 -17 280 -2 11 -7 40 -11 65 -4 25
-20 94 -36 154 -191 707 -823 1242 -1554 1312 -66 6 -283 13 -288 8z"/>
</g>
</svg>
